<svg xmlns="http://www.w3.org/2000/svg" width="286.469" height="71.625" viewBox="0 0 286.469 71.625">
  <path fill="#fff" data-name="Jacqueline K." d="M80.128,4.318A3.039,3.039,0,0,0,81.47,1.786q0-1.83-2.135-1.83a5.6,5.6,0,0,0-1.586.3,6.424,6.424,0,0,0-2.44,1.952,20.1,20.1,0,0,0-2.2,2.867A69.716,69.716,0,0,0,57.07,9.106a48.991,48.991,0,0,0-8.2,4.026,23.822,23.822,0,0,0-6.313,5.734,15.122,15.122,0,0,0-3.538,9.455,7.733,7.733,0,0,0,7.747,7.991,10.991,10.991,0,0,0,3.477-.61,11.533,11.533,0,0,0,6.222-5.246A8.463,8.463,0,0,0,57.8,26.339a7.544,7.544,0,0,0-.61-3.142,1.109,1.109,0,0,0-1.4-.427q-0.611.427,0.122,0.915a3.134,3.134,0,0,1,.427,1.952A9.154,9.154,0,0,1,54.02,31.8a8.156,8.156,0,0,1-3.294,2.318,9.809,9.809,0,0,1-3.355.671,3.875,3.875,0,0,1-2.9-1.586A6.591,6.591,0,0,1,43.1,28.748a14.8,14.8,0,0,1,4.087-9.943,26.5,26.5,0,0,1,7.625-6.039,56.111,56.111,0,0,1,17.263-6.1,148.819,148.819,0,0,0-9.76,18.544q-3.843,9.029-7.5,15.982-2.258,4.271-4.27,7.32t-4.971,6.771a44.355,44.355,0,0,1-5.947,6.252A41.9,41.9,0,0,1,32.761,66.2a29.922,29.922,0,0,1-8.021,3.05,17.417,17.417,0,0,1-4.331.488,37.194,37.194,0,0,1-6.588-.793,16.135,16.135,0,0,1-5.246-2.013A17.672,17.672,0,0,1,4.488,63.64a10.6,10.6,0,0,1-2.379-7.2,16.8,16.8,0,0,1,.763-4.178,13.943,13.943,0,0,1,3.141-5.4,12.7,12.7,0,0,1,4.331-3.477,1.5,1.5,0,0,0,.793-0.61q0-.3-0.732-0.244-1.647.062-4.575,2.5a13.811,13.811,0,0,0-4.087,5.246A20.6,20.6,0,0,0,.1,57.6a12.562,12.562,0,0,0,1.1,5.429q2.44,5,9.028,7.2a25.789,25.789,0,0,0,8.174,1.4,52.6,52.6,0,0,0,7.076-.427q6.771-.915,14.975-5.886A40,40,0,0,0,53.593,52.66a93.835,93.835,0,0,0,6.649-12.474A118.586,118.586,0,0,0,64.878,28.26q4.331-13.725,9.028-21.838l2.623-.488A13.694,13.694,0,0,0,80.128,4.318ZM79.152,2.64Q79.212,4.165,75,4.9q0.121-.122.488-0.519c0.244-.264.436-0.467,0.579-0.61s0.325-.336.549-0.579A4.435,4.435,0,0,1,77.2,2.64c0.162-.122.335-0.254,0.519-0.4a2.025,2.025,0,0,1,.427-0.274,0.757,0.757,0,0,1,.275-0.061,0.727,0.727,0,0,1,.732.732h0Zm2.819,33.894a2.9,2.9,0,0,1-1.127-.046A7.73,7.73,0,0,0,79.9,36.35a2.016,2.016,0,0,0-1.518.621,10.571,10.571,0,0,0-1.472,2.323q-4.462,8.464-7.222,8.464-1.15,0-1.15-1.794a10.225,10.225,0,0,1,1.794-4.784,25.146,25.146,0,0,1,3.082-4.324q2.9-3.128,4.876-3.128A2.121,2.121,0,0,1,80.5,35.384a0.634,0.634,0,0,0,.782-0.368,0.9,0.9,0,0,0-.276-0.966,4.885,4.885,0,0,0-3.588-1.472,6.519,6.519,0,0,0-1.656.23,10.158,10.158,0,0,0-5.428,3.358q-3.91,4.647-3.91,9.154a3.759,3.759,0,0,0,1.38,3.312,2.132,2.132,0,0,0,1.334.46q2.667,0,6.348-5.934a10.8,10.8,0,0,0-.46,2.806,3.555,3.555,0,0,0,.414,1.84A2.485,2.485,0,0,0,77.6,49.092q2.9,0,7.13-8.556a1.444,1.444,0,0,0,.138-0.552q0-.414-0.368-0.276a0.693,0.693,0,0,0-.414.46,32.738,32.738,0,0,1-3.726,6.118Q79.073,47.9,78.2,47.9a0.716,0.716,0,0,1-.69-0.9,12.133,12.133,0,0,1,.3-2.346,19.311,19.311,0,0,1,1.817-4.37,17.605,17.605,0,0,1,2.346-3.749h0ZM95.15,38.742a1.8,1.8,0,0,0,1.081-.6,3.4,3.4,0,0,0,1.288-2.668,2.635,2.635,0,0,0-.759-1.863,3.257,3.257,0,0,0-2.461-.8q-3.5,0-6.164,3.634a19.534,19.534,0,0,0-2.277,4.14A11.63,11.63,0,0,0,84.869,45,4.257,4.257,0,0,0,86,47.919a4.739,4.739,0,0,0,3.7,1.265,6.866,6.866,0,0,0,5.658-2.576,17.4,17.4,0,0,0,1.771-2.576q0.621-1.149,1.242-2.461a7.347,7.347,0,0,0,.621-1.518,0.355,0.355,0,0,0-.23-0.322q-0.231-.114-0.552.529-0.966,1.932-1.518,2.9a25.11,25.11,0,0,1-1.633,2.415,7.464,7.464,0,0,1-2.277,2.116,5.248,5.248,0,0,1-2.6.667,2.3,2.3,0,0,1-2.07-1.012,4.725,4.725,0,0,1-.667-2.645,9.787,9.787,0,0,1,.828-3.657,16.767,16.767,0,0,1,1.7-3.266q2.76-3.956,4.922-3.956A1.089,1.089,0,0,1,96,35.154a5.611,5.611,0,0,1-1.61,3.266A1.036,1.036,0,0,0,95.15,38.742ZM102.418,61.4a3.758,3.758,0,0,1,.713.8q0.321-2.346,4.324-11.684a96.192,96.192,0,0,1,6.486-13.156,3.922,3.922,0,0,1-1.058-.069,8.318,8.318,0,0,0-.828-0.115H111.5a1.474,1.474,0,0,0-.9.391,12.787,12.787,0,0,0-1.771,2.461q-4.554,7.545-6.808,7.544a1.34,1.34,0,0,1-.506-0.092,1.712,1.712,0,0,1-.92-1.748q0-1.748,2.07-5.313a17.5,17.5,0,0,1,5.106-5.681,5.046,5.046,0,0,1,2.806-1.1q1.242,0,1.886,1.748a1.044,1.044,0,0,0,.23.414,0.469,0.469,0,0,0,.828-0.092,1.01,1.01,0,0,0,.184-0.644,1.592,1.592,0,0,0-.782-1.012,6.8,6.8,0,0,0-4-1.38,5.522,5.522,0,0,0-1.564.23,9.38,9.38,0,0,0-5.06,3.266Q98.346,40.9,98.347,44.86a3.889,3.889,0,0,0,2.346,3.956,3.182,3.182,0,0,0,.92.138q2.024,0,4.186-2.53a56.87,56.87,0,0,0,3.22-4.692q-0.6,1.335-2.691,5.543t-3.611,7.659a17.052,17.052,0,0,0-1.518,4.232,2.964,2.964,0,0,0,.6,1.656Q101.889,60.914,102.418,61.4Zm13.408-14.513q0.414,2.07,2.9,2.07,2.852,0,6.21-5.888a9.613,9.613,0,0,0-.46,2.622,4.746,4.746,0,0,0,.276,1.748,2.359,2.359,0,0,0,2.369,1.518,4.928,4.928,0,0,0,3.519-2.024,14.358,14.358,0,0,0,1.5-2.139q0.805-1.356,1.2-2.139l0.8-1.61a3.5,3.5,0,0,0,.414-1.058,0.415,0.415,0,0,0-.276-0.368q-0.276-.138-0.552.506Q130.086,47.8,127.6,47.8q-1.012-.092-1.012-1.564a5.735,5.735,0,0,1,.138-1.2,36.519,36.519,0,0,1,3.082-7.314,23.858,23.858,0,0,1,1.587-2.944,7.45,7.45,0,0,1,1.587-1.61H130.5a1.847,1.847,0,0,0-1.794.966q-4.416,9.154-6.854,12.006-1.565,1.84-2.438,1.84a1.162,1.162,0,0,1-.943-0.414,2.258,2.258,0,0,1-.345-1.426,7.853,7.853,0,0,1,.92-2.967q0.919-1.955,2.6-5.382a12.479,12.479,0,0,1,3.335-4.623h-2.806a1.792,1.792,0,0,0-1.794.966q-1.012,2.07-2.576,5.06l-0.828,1.61q-0.323.736,0.414,0.736a9.721,9.721,0,0,0-1.7,4.784,1.052,1.052,0,0,0,.138.552h0ZM140.39,41.3a9.861,9.861,0,0,0,2.852-1.4q3.312-2.529,3.312-5.29a1.845,1.845,0,0,0-.782-1.426,3.171,3.171,0,0,0-1.794-.552,5.081,5.081,0,0,0-2.024.46,10.329,10.329,0,0,0-3.91,2.921,16.809,16.809,0,0,0-2.691,4.324,11.223,11.223,0,0,0-.989,4.393,4.237,4.237,0,0,0,1.288,3.266,4.426,4.426,0,0,0,3.128,1.2,6.966,6.966,0,0,0,5.8-3.22,19.414,19.414,0,0,0,2.093-3.611,19.285,19.285,0,0,0,1.035-2.415,0.218,0.218,0,0,0-.184-0.23,0.774,0.774,0,0,0-.782.644q-3.405,7.866-7.59,7.866a1.926,1.926,0,0,1-1.633-.759,3.306,3.306,0,0,1-.575-2.047,9.091,9.091,0,0,1,.644-3.5A9.658,9.658,0,0,0,140.39,41.3Zm2.392-2.185a8.753,8.753,0,0,1-2.6,1.472,7.272,7.272,0,0,1-2.277.552,23.635,23.635,0,0,1,2.76-4.324q2.622-3.174,3.91-3.174a0.743,0.743,0,0,1,.736.92q0,2.392-2.53,4.554h0Zm8.464,1.012a41.552,41.552,0,0,0,9.43-13.8,9.959,9.959,0,0,0,1.1-3.956,4.386,4.386,0,0,0-.046-0.69q-0.369-1.518-1.426-1.518a4.383,4.383,0,0,0-3.082,1.656,19.525,19.525,0,0,0-2.139,3.105,63.09,63.09,0,0,0-3.312,6.785,64.181,64.181,0,0,0-3.013,8.326q-0.047.184-.483,1.564a13.6,13.6,0,0,0-.575,2.852q-0.047.874-.046,1.426a5.779,5.779,0,0,0,.161,1.265,2.428,2.428,0,0,0,.943,1.334,3.471,3.471,0,0,0,2.208.621,5.76,5.76,0,0,0,3.036-1.012,5.832,5.832,0,0,0,1.265-1.127q0.666-.759,1.058-1.242a9.836,9.836,0,0,0,.92-1.472q0.528-.989.736-1.38t0.644-1.38q0.436-.989.575-1.288a0.363,0.363,0,0,0-.092-0.483q-0.323-.138-0.69.506A47.378,47.378,0,0,1,155.11,45.9q-1.565,2.232-3.22,2.231a1.552,1.552,0,0,1-1.472-.851,3.8,3.8,0,0,1-.46-1.84,7.942,7.942,0,0,1,.253-1.978q0.252-.989.621-2.07t0.414-1.265h0Zm0.368-1.472q1.38-3.542,3.565-8.257a46.2,46.2,0,0,1,3.473-6.532q1.287-1.817,1.748-1.817,0.321,0,.322.92a11.383,11.383,0,0,1-1.081,3.473,44.665,44.665,0,0,1-3.381,6.187,36.387,36.387,0,0,1-4.646,6.026h0Zm15.777-8.878a1.523,1.523,0,0,0-.345-1.334,1.6,1.6,0,0,0-1.265-.552,2.138,2.138,0,0,0-1.426.552,2.228,2.228,0,0,0-.782,1.334,1.683,1.683,0,0,0,.368,1.334,1.531,1.531,0,0,0,1.242.552,2.142,2.142,0,0,0,1.426-.552A2.231,2.231,0,0,0,167.391,29.772Zm-6.716,16.882a7.2,7.2,0,0,1,.782-2.9l3.68-8.6a1.472,1.472,0,0,0,.276-1.219,1.327,1.327,0,0,0-1.242-.391l-2.53.046a2.229,2.229,0,0,1,.552,1.2,2.4,2.4,0,0,1-.092.736l-2.944,7.5a7.258,7.258,0,0,0-.6,2.714,3.739,3.739,0,0,0,.736,2.254A2.782,2.782,0,0,0,161.71,49q1.679,0,3.565-2.162a14.767,14.767,0,0,0,1.541-2.231q0.851-1.449,1.15-2.093t0.667-1.449A3.709,3.709,0,0,0,169,40.053a0.413,0.413,0,0,0-.092-0.3q-0.322-.276-0.644.414a29.447,29.447,0,0,1-4.324,6.946,2.828,2.828,0,0,1-1.84.874,1.221,1.221,0,0,1-1.426-1.334h0ZM183.537,33.82a9.005,9.005,0,0,0-3.634,1.357,22.525,22.525,0,0,0-4.255,2.944,37.308,37.308,0,0,0-3.933,4.255q3.864-7.728,5.566-8.648a2.9,2.9,0,0,1-1.127-.046,7.736,7.736,0,0,0-.943-0.138,2.051,2.051,0,0,0-1.518.552q-1.2,1.15-5.06,9.2-2.162,4.554-2.9,6.026a3.432,3.432,0,0,1,1.334-.23,6.052,6.052,0,0,0,1.357-.161,1.215,1.215,0,0,0,.621-0.575,31.915,31.915,0,0,1,6.394-9.108q2.208-2.07,2.99-2.07t0.782,0.483a2.8,2.8,0,0,1-.506,1.311,24.8,24.8,0,0,0-2.53,4.784,8.646,8.646,0,0,0-.46,2.507,2.613,2.613,0,0,0,.46,1.633,2.889,2.889,0,0,0,2.553,1.288,4.674,4.674,0,0,0,3.358-1.863,32.526,32.526,0,0,0,4.117-6.785,1.169,1.169,0,0,0,.184-0.552,0.415,0.415,0,0,0-.276-0.368q-0.276-.138-0.552.506-3.957,7.959-6.3,7.958-0.874,0-.874-1.2,0-3.036,5.658-12.972a1.358,1.358,0,0,0-.506-0.092h0Zm8.694,7.475a9.861,9.861,0,0,0,2.852-1.4q3.312-2.529,3.312-5.29a1.845,1.845,0,0,0-.782-1.426,3.171,3.171,0,0,0-1.794-.552,5.081,5.081,0,0,0-2.024.46,10.329,10.329,0,0,0-3.91,2.921,16.809,16.809,0,0,0-2.691,4.324,11.223,11.223,0,0,0-.989,4.393,4.237,4.237,0,0,0,1.288,3.266,4.426,4.426,0,0,0,3.128,1.2,6.966,6.966,0,0,0,5.8-3.22,19.414,19.414,0,0,0,2.093-3.611,19.285,19.285,0,0,0,1.035-2.415,0.218,0.218,0,0,0-.184-0.23,0.774,0.774,0,0,0-.782.644q-3.405,7.866-7.59,7.866a1.926,1.926,0,0,1-1.633-.759,3.306,3.306,0,0,1-.575-2.047,9.091,9.091,0,0,1,.644-3.5A9.658,9.658,0,0,0,192.231,41.3Zm2.392-2.185a8.753,8.753,0,0,1-2.6,1.472,7.272,7.272,0,0,1-2.277.552,23.635,23.635,0,0,1,2.76-4.324q2.622-3.174,3.91-3.174a0.743,0.743,0,0,1,.736.92q0,2.392-2.53,4.554h0ZM259.8,55.072a9.535,9.535,0,0,0,6.164,2.392,11.82,11.82,0,0,0,6.371-1.955,11.393,11.393,0,0,0,4.347-4.485q0.505-1.012.092-1.012a0.837,0.837,0,0,0-.69.644,7.884,7.884,0,0,1-3.887,3.588,13.293,13.293,0,0,1-5.635,1.242q-5.106,0-8.234-7.176A41.434,41.434,0,0,1,256.468,43a27,27,0,0,1-.9-3.887q-0.092-1.011-.092-1.449a1.181,1.181,0,0,1,.092-0.575q6.395-1.61,15.916-9.269a63.084,63.084,0,0,0,14.766-16.353,1.913,1.913,0,0,0,.322-0.874,0.579,0.579,0,0,0-.161-0.46,0.476,0.476,0,0,0-.3-0.138,1.615,1.615,0,0,0-1.012.874,59.856,59.856,0,0,1-8.533,10.1,73.775,73.775,0,0,1-9.936,8.188,81.966,81.966,0,0,1-8.487,5.083q-3.726,1.887-5.106,1.886H252.9a1.266,1.266,0,0,0-.368,1.219q0,1.081.092,2.093T253,42.008q1.748,8.925,6.808,13.064h0ZM259.159,15.88q-0.874.093-4.071,0.3t-5.681.483q-8.189.874-12.512,4.094-4.692,3.4-4.692,8.418a7.331,7.331,0,0,0,2.484,5.75,6.031,6.031,0,0,0,4.14,1.656,8.368,8.368,0,0,0,2.852-.552,7.011,7.011,0,0,0,3.864-3.818,6.758,6.758,0,0,0,.874-3.013A5.75,5.75,0,0,0,246,26.92a1.09,1.09,0,0,0-.644-0.6q-0.23,0-.138.506a11.289,11.289,0,0,1,.092,1.748,9,9,0,0,1-.736,3.128q-1.518,3.91-5.29,3.91a3.95,3.95,0,0,1-4-3.082,7.658,7.658,0,0,1-.368-2.346,9.776,9.776,0,0,1,1.288-4.646q2.668-4.968,8.97-6.716a51.2,51.2,0,0,1,9.384-1.472q3.266-.276,3.956-0.368-2.255,4.554-5.244,11.316t-4.163,8.97a50.347,50.347,0,0,1-3.22,5.129,32.1,32.1,0,0,1-4.278,5.014,28.687,28.687,0,0,1-5.52,3.956,26.29,26.29,0,0,1-7.061,2.737,10.934,10.934,0,0,1-2.99.368,23.722,23.722,0,0,1-4.324-.506,12.163,12.163,0,0,1-6.624-3.68,8.367,8.367,0,0,1-2.3-6.118,9.442,9.442,0,0,1,2.024-6.164,8.743,8.743,0,0,1,2.668-2.392,0.414,0.414,0,0,0,.276-0.368q0-.368-0.6-0.276A6.082,6.082,0,0,0,214.24,36.7a7.3,7.3,0,0,0-2.3,3.611,15.562,15.562,0,0,0-.529,3.933,10.742,10.742,0,0,0,.736,3.841q2.438,6.348,10.856,8.28a19.912,19.912,0,0,0,4.255.506,25.361,25.361,0,0,0,3.565-.23,23.351,23.351,0,0,0,15.226-8.878,47.224,47.224,0,0,0,4.485-7.521,63.771,63.771,0,0,0,3.335-8.119A93.838,93.838,0,0,1,259.9,16.892a8.036,8.036,0,0,0,4.646-1.656,2.092,2.092,0,0,0,.874-1.38,2.271,2.271,0,0,0-.368-1.2,1.193,1.193,0,0,0-1.081-.6,5.587,5.587,0,0,0-1.472.207,4.125,4.125,0,0,0-1.794,1.472,17.133,17.133,0,0,0-1.541,2.139h0Zm3.588-.69a6.248,6.248,0,0,1-2.024.552,18.677,18.677,0,0,1,1.817-1.955,1.644,1.644,0,0,1,1.035-.437,0.412,0.412,0,0,1,.414.506,1.721,1.721,0,0,1-1.242,1.334h0Zm11.868,32.867a4.641,4.641,0,0,0,.092-0.851,1.4,1.4,0,0,0-.414-0.851,1.489,1.489,0,0,0-1.2-.483,2.387,2.387,0,0,0-1.518.6,2.23,2.23,0,0,0-.736,1.84,1.4,1.4,0,0,0,.414.851,1.488,1.488,0,0,0,1.2.483,2.142,2.142,0,0,0,1.426-.552A1.984,1.984,0,0,0,274.615,48.057Z" transform="translate(-0.094)"/>
</svg>
