<?xml version="1.0" standalone="no"?>
<!DOCTYPE svg PUBLIC "-//W3C//DTD SVG 20010904//EN"
 "http://www.w3.org/TR/2001/REC-SVG-20010904/DTD/svg10.dtd">
<svg version="1.0" xmlns="http://www.w3.org/2000/svg"
 width="102.000000pt" height="102.000000pt" viewBox="0 0 102.000000 102.000000"
 preserveAspectRatio="xMidYMid meet">
<metadata>
Created by potrace 1.11, written by Peter Selinger 2001-2013
</metadata>
<g transform="translate(0.000000,102.000000) scale(0.100000,-0.100000)"
fill="#000000" stroke="none">
<path d="M0 510 l0 -430 510 0 510 0 0 130 0 130 -50 0 -50 0 0 -80 0 -80
-410 0 -410 0 0 330 0 330 410 0 410 0 0 -65 0 -65 50 0 50 0 0 115 0 115
-510 0 -510 0 0 -430z"/>
<path d="M246 592 c-5 -9 -66 -164 -66 -169 0 -13 19 2 28 22 9 20 19 25 47
25 28 0 37 -5 50 -31 30 -58 27 -21 -5 66 -33 85 -44 103 -54 87z m27 -67 l16
-45 -34 0 -34 0 17 45 c9 25 17 45 18 45 1 0 9 -20 17 -45z"/>
<path d="M375 575 c-50 -49 -21 -148 46 -159 35 -6 89 27 89 54 0 12 -4 18
-10 15 -5 -3 -10 -11 -10 -17 0 -17 -33 -37 -61 -38 -28 0 -53 22 -63 57 -8
26 17 92 36 94 7 1 23 3 36 4 14 1 30 -7 41 -21 11 -13 22 -24 25 -24 12 0 6
17 -14 38 -29 31 -83 30 -115 -3z"/>
<path d="M538 533 c-3 -76 0 -113 10 -113 4 0 7 38 7 85 l-1 85 53 0 53 0 1
-37 c0 -21 0 -59 -1 -84 -1 -26 3 -50 9 -54 8 -4 11 24 11 89 l0 96 -69 0 -69
0 -4 -67z"/>
<path d="M710 504 c0 -90 8 -125 14 -56 1 17 8 38 16 47 13 15 18 12 62 -37
26 -29 48 -48 48 -42 0 6 -19 32 -41 58 l-42 47 44 39 c24 22 39 40 33 40 -7
0 -34 -20 -62 -45 -27 -25 -52 -45 -55 -45 -2 0 -4 18 -3 41 1 22 -2 42 -6 45
-4 3 -8 -39 -8 -92z"/>
</g>
</svg>
